<svg xmlns="http://www.w3.org/2000/svg"  viewBox="0 0 50 50" width="50px" height="50px"><path d="M 31 4 C 19.414063 4 10 13.414063 10 25 C 10 36.585938 19.414063 46 31 46 C 33.988281 46 36.828125 45.367188 39.402344 44.242188 C 39.765625 44.082031 40 43.722656 40 43.324219 C 40 42.925781 39.765625 42.566406 39.402344 42.40625 C 32.695313 39.476563 28 32.796875 28 25 C 28 17.203125 32.695313 10.523438 39.402344 7.59375 C 39.765625 7.433594 40 7.074219 40 6.675781 C 40 6.277344 39.765625 5.917969 39.402344 5.757813 C 36.828125 4.632813 33.988281 4 31 4 Z M 31 6 C 32.984375 6 34.855469 6.398438 36.65625 6.96875 C 30.355469 10.59375 26 17.21875 26 25 C 26 32.78125 30.355469 39.40625 36.65625 43.03125 C 34.855469 43.601563 32.984375 44 31 44 C 20.496094 44 12 35.503906 12 25 C 12 14.496094 20.496094 6 31 6 Z"/></svg>